<svg xmlns="http://www.w3.org/2000/svg" viewBox="0.2 60.1 400 278.5"><g><path fill="#FFFFFF" d="M285.5,108.2c-6.7,0-13.2,0.7-19.6,1.9c-22.3-21.6-52.7-34.8-86.1-34.8c-39.9,0-75.4,18.9-98.1,48.2c-36.9,1.7-66.2,32.2-66.2,69.4c0,34.1,24.5,62.5,57,68.4c21.4,37,61.5,62,107.3,62c26.4,0,50.9-8.3,71.1-22.4c10.8,4,22.5,6.2,34.7,6.2c54.9,0,99.4-44.5,99.4-99.5S340.4,108.2,285.5,108.2"/><path fill="#0086FF" d="M179.8,338.5c-47.2,0-91.5-24.3-117-63.8c-36.6-9.9-62.5-43.3-62.5-81.8c0-43,31.8-78.6,73.7-84.1c26.5-31.1,64.7-48.8,105.9-48.8c33.7,0,65.7,12,91,33.8c4.9-0.6,9.8-0.9,14.8-0.9c63.2,0,114.7,51.5,114.7,114.7c0,63.3-51.5,114.7-114.7,114.7c-11.1,0-22-1.6-32.5-4.7C231,331.4,205.9,338.5,179.8,338.5 M179.8,90.6c-33.9,0-65.2,15.4-86,42.2l-4.3,5.6l-7,0.3c-29,1.4-51.7,25.2-51.7,54.2c0,26.2,18.7,48.7,44.4,53.4l6.9,1.3l3.5,6.1c19.4,33.5,55.5,54.3,94.1,54.3c22.4,0,44-6.8,62.3-19.6l6.6-4.6l7.5,2.8c9.4,3.5,19.3,5.3,29.3,5.3c46.4,0,84.2-37.8,84.2-84.2c0-46.4-37.8-84.2-84.2-84.2c-5.6,0-11.2,0.5-16.6,1.6l-7.8,1.6l-5.8-5.6C234.9,101.5,208.1,90.6,179.8,90.6"/></g></svg>