<svg xmlns="http://www.w3.org/2000/svg" width="40" height="40" viewBox="0 0 40 40">
    <path fill="#1250DB" fill-rule="evenodd" d="M19.266 25.495a.775.775 0 0 0-.926-.584 3.185 3.185 0 0 0-2.494 3.123.775.775 0 0 0 1.549 0c0-.765.54-1.445 1.287-1.613a.777.777 0 0 0 .584-.926m3.682 2.582a3.879 3.879 0 0 1-3.874 3.875 3.879 3.879 0 0 1-3.874-3.875 3.875 3.875 0 0 1 2.877-3.739l.223-.058v-7.4h1.55v7.399l.222.06a3.873 3.873 0 0 1 2.876 3.738m1 0a4.852 4.852 0 0 0-2.67-4.342l-.33-.167V9.075c0-1.035-.84-1.875-1.874-1.875-1.033 0-1.874.84-1.874 1.875v14.493l-.328.167a4.853 4.853 0 0 0-2.672 4.342 4.88 4.88 0 0 0 4.874 4.875 4.88 4.88 0 0 0 4.874-4.875m1.2 0a6.08 6.08 0 0 1-6.074 6.074A6.08 6.08 0 0 1 13 28.077c0-2.17 1.14-4.143 3-5.233V9.074A3.078 3.078 0 0 1 19.074 6a3.078 3.078 0 0 1 3.074 3.074v13.77c1.86 1.09 3 3.063 3 5.233"/>
</svg>
