<svg xmlns="http://www.w3.org/2000/svg" viewBox="0 0 400 400"><path fill="#FFF" d="M348.84 199.1c.27 82.19-66.14 149.03-148.33 149.3-82.19.27-149.03-66.14-149.3-148.33-.27-82.19 66.14-149.03 148.33-149.3s149.04 66.14 149.3 148.33"/><path fill="#FF6700" d="M365.74 312.34l-11.84-72.83c-.35-2.13.17-4.31 1.43-6.06l43.14-59.87c2.62-3.64 1.8-8.72-1.84-11.35l-59.86-43.12c-1.75-1.26-2.93-3.16-3.27-5.29l-11.83-72.84c-.72-4.43-4.9-7.44-9.33-6.72L239.5 46.11c-2.13.35-4.31-.17-6.06-1.43L173.58 1.54c-3.64-2.62-8.72-1.8-11.35 1.84L119.1 63.25c-1.26 1.75-3.16 2.93-5.29 3.27L40.98 78.35c-4.43.72-7.44 4.9-6.72 9.33l11.83 72.84c.35 2.13-.17 4.31-1.43 6.06L1.54 226.42c-2.63 3.64-1.8 8.72 1.84 11.35l59.87 43.12c1.75 1.26 2.93 3.17 3.27 5.29l11.82 72.84c.72 4.43 4.9 7.44 9.33 6.72l72.82-11.85c2.13-.35 4.31.17 6.06 1.43l59.87 43.14c3.64 2.62 8.72 1.8 11.35-1.84l43.11-59.86c1.26-1.75 3.17-2.93 5.29-3.27l72.84-11.82c4.44-.73 7.45-4.9 6.73-9.33m-268.58-5.45c-61.78-59.54-60.44-158.65 2.92-216.5C157.46 38 246.9 39.21 302.84 93.13c61.77 59.54 60.44 158.64-2.92 216.49-57.38 52.39-146.82 51.19-202.76-2.73"/><path fill="#FFF200" d="M283.01 119.74l-.27-.28c-45.82-47.07-122.34-46.63-167.55 2.16-18.16 19.6-29.01 45.14-30.49 71.82-1.81 32.54 9.78 63.56 32.28 86.83l.27.28c45.82 47.07 122.34 46.63 167.55-2.17 18.16-19.6 29.01-45.14 30.49-71.82 1.81-32.53-9.78-63.56-32.28-86.82"/><path fill="#FF681D" d="M107.09 289.84c-26.28-27.17-39.25-63.8-35.77-101.94 2.4-26.37 13.01-51.5 30.22-71.62 50.05-58.55 138.57-60.36 191.07-6.42l.3.31c26.28 27.17 39.25 63.8 35.77 101.93-2.4 26.37-13.01 51.5-30.21 71.62-50.05 58.56-138.57 60.36-191.08 6.42l-.3-.3zm175.92-170.1l-.27-.28c-45.82-47.07-122.34-46.63-167.55 2.16-18.16 19.6-29.01 45.14-30.49 71.82-1.81 32.54 9.78 63.56 32.28 86.83l.27.28c45.82 47.07 122.34 46.63 167.55-2.16 18.16-19.6 29.01-45.14 30.49-71.82 1.81-32.54-9.77-63.56-32.28-86.83"/></svg>