<?xml version="1.0" standalone="no"?>
<!DOCTYPE svg PUBLIC "-//W3C//DTD SVG 20010904//EN"
 "http://www.w3.org/TR/2001/REC-SVG-20010904/DTD/svg10.dtd">
<svg version="1.0" xmlns="http://www.w3.org/2000/svg"
 width="69.000000pt" height="74.000000pt" viewBox="0 0 69.000000 74.000000"
 preserveAspectRatio="xMidYMid meet">

<g transform="translate(0.000000,74.000000) scale(0.100000,-0.100000)"
fill="#000000" stroke="none">
<path d="M157 652 c-9 -10 -17 -22 -17 -25 0 -4 93 -7 206 -7 l206 0 -14 23
c-15 21 -22 22 -190 25 -159 2 -176 1 -191 -16z"/>
<path d="M97 532 c-14 -15 -17 -42 -17 -155 0 -162 7 -177 86 -177 40 0 45 2
39 17 -27 65 -34 97 -34 163 0 54 5 87 19 119 11 24 20 45 20 47 0 2 -22 4
-48 4 -35 0 -54 -5 -65 -18z"/>
<path d="M250 490 c-19 -50 -22 -73 -17 -133 3 -39 13 -91 23 -114 l17 -43
139 0 c155 0 171 6 183 74 13 66 2 220 -18 249 l-17 27 -144 0 -144 0 -22 -60z"/>
<path d="M140 130 c0 -5 9 -19 20 -30 18 -18 33 -20 185 -20 152 0 167 2 185
20 11 11 20 25 20 30 0 6 -75 10 -205 10 -130 0 -205 -4 -205 -10z"/>
</g>
</svg>
