<?xml version="1.0" standalone="no"?>
<!DOCTYPE svg PUBLIC "-//W3C//DTD SVG 20010904//EN"
 "http://www.w3.org/TR/2001/REC-SVG-20010904/DTD/svg10.dtd">
<svg version="1.0" xmlns="http://www.w3.org/2000/svg"
 width="480.000000pt" height="480.000000pt" viewBox="0 0 480.000000 480.000000"
 preserveAspectRatio="xMidYMid meet">

<g transform="translate(0.000000,480.000000) scale(0.100000,-0.100000)"
fill="#000000" stroke="none">
<path d="M1306 4389 c-62 -15 -153 -68 -197 -116 -50 -55 -96 -151 -105 -220
l-7 -53 1403 0 1403 0 -7 53 c-9 74 -66 186 -122 236 -25 24 -75 57 -112 74
l-67 32 -1075 2 c-628 1 -1091 -3 -1114 -8z"/>
<path d="M906 3589 c-62 -15 -153 -68 -197 -116 -22 -24 -55 -74 -72 -111
l-32 -67 0 -895 0 -895 32 -67 c44 -93 100 -151 191 -196 l76 -37 308 -3 c169
-2 308 -1 308 2 0 4 -37 79 -81 169 -45 89 -95 200 -111 246 -167 483 -168
1074 -1 1555 19 54 70 170 114 257 43 87 79 161 79 164 0 9 -574 3 -614 -6z"/>
<path d="M1840 3338 c-133 -269 -161 -344 -200 -537 -63 -311 -48 -666 42
-976 23 -80 66 -179 160 -367 l127 -258 875 0 c838 0 877 1 937 19 79 25 160
80 204 141 45 61 78 148 125 336 118 461 118 949 0 1416 -78 306 -153 414
-329 469 -60 18 -99 19 -937 19 l-875 0 -129 -262z"/>
<path d="M1004 748 c9 -71 55 -167 107 -222 26 -29 70 -60 117 -84 l76 -37
1096 0 1096 0 76 37 c47 24 91 55 117 84 52 55 98 151 107 222 l7 52 -1403 0
-1403 0 7 -52z"/>
</g>
</svg>
