<?xml version="1.0" encoding="UTF-8" standalone="no"?>
<!-- Created with Inkscape (http://www.inkscape.org/) -->

<svg
   xmlns:dc="http://purl.org/dc/elements/1.1/"
   xmlns:cc="http://creativecommons.org/ns#"
   xmlns:rdf="http://www.w3.org/1999/02/22-rdf-syntax-ns#"
   xmlns:svg="http://www.w3.org/2000/svg"
   xmlns="http://www.w3.org/2000/svg"
   xmlns:sodipodi="http://sodipodi.sourceforge.net/DTD/sodipodi-0.dtd"
   xmlns:inkscape="http://www.inkscape.org/namespaces/inkscape"
   id="svg2"
   version="1.1"
   inkscape:version="0.48.1 "
   width="285.62384"
   height="209.71681"
   sodipodi:docname="unavailable.png">
  <metadata
     id="metadata8">
    <rdf:RDF>
      <cc:Work
         rdf:about="">
        <dc:format>image/svg+xml</dc:format>
        <dc:type
           rdf:resource="http://purl.org/dc/dcmitype/StillImage" />
        <dc:title></dc:title>
      </cc:Work>
    </rdf:RDF>
  </metadata>
  <defs
     id="defs6" />
  <sodipodi:namedview
     pagecolor="#ffffff"
     bordercolor="#666666"
     borderopacity="1"
     objecttolerance="10"
     gridtolerance="10"
     guidetolerance="10"
     inkscape:pageopacity="0"
     inkscape:pageshadow="2"
     inkscape:window-width="1680"
     inkscape:window-height="988"
     id="namedview4"
     showgrid="false"
     fit-margin-top="0"
     fit-margin-left="0"
     fit-margin-right="0"
     fit-margin-bottom="0"
     inkscape:zoom="2.0154744"
     inkscape:cx="189.97518"
     inkscape:cy="86.275161"
     inkscape:window-x="-8"
     inkscape:window-y="-8"
     inkscape:window-maximized="1"
     inkscape:current-layer="svg2" />
  <path
     style="fill:#000000"
     d="M 132.16023,1.0529587e-4 C 120.1663,-0.0157847 111.34577,1.7665633 103.72069,5.4893563 99.120175,7.7354603 92.413826,10.548918 88.821293,11.710506 82.298951,13.819415 77.254679,19.027282 75.33342,25.721165 c -0.883014,3.076522 -0.146882,3.6909 5.54153,4.600514 9.848095,1.574782 10.233668,5.537832 0.888735,9.671536 -6.240088,2.760243 -10.391191,3.294237 -21.747887,2.823043 -12.382311,-0.513718 -14.010876,-0.242857 -14.010658,2.300258 1.84e-4,2.08507 -2.657185,3.625942 -9.619251,5.541528 -17.182973,4.727845 -24.355995,7.87274 -30.4261319,13.435598 L 0,69.582892 0.4182286,83.488997 c 2.1407952,68.208883 3.8781502,92.674373 6.8484935,96.767643 5.8146989,8.01287 32.4498169,22.0285 52.5922399,27.65536 10.636674,2.97138 21.951481,2.20168 26.348401,-1.77747 3.086745,-2.79346 3.293551,-5.37581 3.293551,-44.27995 0,-23.65702 0.700332,-43.38471 1.672914,-46.16198 0.934156,-2.66758 3.945397,-6.11757 6.691657,-7.68495 5.195865,-2.96549 5.829945,-5.24851 5.332425,-18.924853 -0.23547,-6.4727 -0.16295,-6.51447 1.56835,-1.98658 2.77871,7.26747 -0.11158,19.824363 -5.123305,22.322953 -2.22156,1.10759 -4.86068,3.39324 -5.855198,5.07102 -1.090356,1.83947 -2.013671,17.14659 -2.352535,38.58159 -0.471043,29.79672 -0.193825,35.71393 1.829749,36.49045 1.869664,0.71746 38.904819,-9.91273 40.986409,-11.76268 0.2534,-0.22521 -1.44095,-4.07324 -3.76405,-8.57369 -6.06449,-11.74854 -8.68874,-32.46294 -6.16888,-48.67135 2.25684,-14.5166 9.30018,-30.177913 17.87927,-39.836281 l 5.95976,-6.691657 -6.79621,10.769385 c -3.72063,5.91253 -7.84631,14.46754 -9.20104,19.029403 -6.10384,20.55388 -4.50184,46.67833 3.81635,62.00239 4.40718,8.11913 5.22425,8.68107 28.59637,19.81358 13.23518,6.30415 24.31124,11.18591 24.62322,10.87394 0.31194,-0.31194 -1.17581,-3.15763 -3.29355,-6.3257 -13.27446,-19.8581 -10.94353,-57.8085 5.17557,-85.00496 11.67166,-19.692703 32.65726,-35.340324 47.46895,-35.340324 8.72368,0 6.33044,-2.768323 -4.96647,-5.698365 -6.21814,-1.612774 -12.25413,-3.504388 -13.43559,-4.234566 -1.18147,-0.730193 -3.83805,-6.345314 -5.90748,-12.494582 l -3.76406,-11.187615 5.07102,-3.973172 c 4.64033,-3.631612 4.92227,-4.383253 3.08445,-8.41685 C 214.54234,14.869906 183.74962,4.6074413 150.66685,1.1502343 143.72655,0.4249633 137.61203,0.0073493 132.16023,1.0529587e-4 z M 206.08215,21.434322 c 7.00198,-0.121605 8.91216,0.4511 10.40343,2.247978 3.12866,3.769795 0.66299,6.014579 -8.52141,7.789508 -3.98443,0.770025 -14.26734,1.476095 -22.84573,1.516078 -13.94968,0.06516 -15.50602,-0.268335 -15.00396,-2.875321 0.93956,-4.878687 9.27809,-7.455996 27.0803,-8.364573 3.6292,-0.185225 6.55336,-0.273136 8.88737,-0.31367 z m -133.780888,10.2466 c -11.676055,-0.136928 -26.965657,3.148726 -23.577636,6.430265 0.788845,0.76407 3.722234,1.620535 6.482543,1.934307 7.830393,0.89009 21.242215,-0.521364 26.76663,-2.823043 l 5.018743,-2.091143 -5.018743,-2.038865 c -2.26536,-0.922696 -5.779518,-1.365884 -9.671537,-1.411521 z M 95.094725,71.5172 c 0.46005,0 2.47817,2.258435 4.44368,5.018743 1.965505,2.760309 3.178535,5.018743 2.718485,5.018743 -0.46005,0 -2.425895,-2.258434 -4.391405,-5.018743 -1.96551,-2.760308 -3.23081,-5.018743 -2.77076,-5.018743 z m -13.592432,2.091143 c 1.963315,0.07194 2.979878,0.489244 2.979878,1.202407 0,1.253114 1.299838,1.552213 3.554943,0.836457 2.615133,-0.829999 3.207462,-0.559171 2.247979,0.993293 -0.873077,1.412692 -0.635324,1.681446 0.7319,0.836458 1.197021,-0.739797 3.017319,0.01673 4.391402,1.829749 3.12243,4.12148 3.03809,5.0128 -0.88874,8.93964 -2.226713,2.22671 -5.444162,3.3291 -9.619256,3.24127 C 68.6784,91.146107 51.523967,78.363434 63.98897,75.9086 72.314044,74.269077 78.230089,73.488411 81.502293,73.608343 z m 168.284737,2.979878 c -5.26168,-0.07896 -12.86132,1.142618 -19.0294,3.450386 -13.52394,5.05995 -27.58496,19.32973 -35.07893,35.549433 -7.5848,16.41636 -9.70974,27.09619 -8.73051,43.60033 0.96973,16.34435 5.09283,26.57934 14.53343,36.01994 3.73765,3.73765 7.58786,6.79622 8.5737,6.79622 0.98581,0 0.57106,-1.20641 -0.88874,-2.66622 -23.56878,-23.56875 -20.50605,-70.50801 6.53482,-100.583973 9.18485,-10.21578 25.11963,-18.872565 34.76525,-18.872565 3.9228,0 6.11101,-0.666891 5.48926,-1.672914 -0.65857,-1.065564 -3.01187,-1.573276 -6.16888,-1.620637 z M 93.996871,81.972917 c -0.414565,0.10171 -1.091074,0.73416 -1.882028,1.77747 -2.429875,3.20512 -10.604639,4.30166 -14.533444,1.93431 -1.98329,-1.19503 -1.952408,-0.99545 0,1.41152 4.487392,5.53208 16.833706,2.07908 16.833706,-4.70507 0,-0.34504 -0.169487,-0.47923 -0.418234,-0.41823 z m 155.424209,4.60051 c -5.63233,0 -21.08854,6.87762 -24.36182,10.82167 -1.55906,1.87857 -0.75593,2.12998 4.60052,1.41151 8.91618,-1.19589 16.16623,2.867063 20.59776,11.553573 4.40112,8.62692 3.78191,23.68151 -1.62063,38.84298 -8.07667,22.666 -30.03144,33.8222 -44.38452,22.53207 -5.25764,-4.13567 -5.60549,-1.90359 -1.2024,7.68495 3.62609,7.89651 8.06185,12.20221 14.638,14.1675 16.13126,4.82085 40.2553,-10.86531 50.2397,-32.67411 11.25995,-24.59494 7.63191,-56.92849 -7.84178,-69.948743 -3.27489,-2.75565 -7.27829,-4.3914 -10.66483,-4.3914 z m 16.78142,1.67292 c -0.90834,0 -0.11545,1.69382 1.77747,3.76405 28.0726,30.701453 2.58983,103.011423 -37.48373,106.334633 -5.93348,0.49205 -8.35736,1.27258 -6.90078,2.19569 1.23828,0.78477 5.63854,1.45042 9.82837,1.46381 20.17316,0.0678 41.19885,-20.70592 49.61237,-49.03731 4.74207,-15.9682 2.75552,-39.91973 -4.23456,-51.33755 -3.63159,-5.932003 -10.64901,-13.383323 -12.59914,-13.383323 z m -39.88855,15.579013 c -9.68895,0.28737 -23.0671,23.58278 -24.36182,43.75717 -0.62994,9.81604 -0.23524,13.418 1.93431,16.72914 6.83372,10.42959 24.08463,-0.59224 30.42614,-19.44763 6.11892,-18.19356 3.18096,-37.82634 -6.11661,-40.77729 -0.60847,-0.19311 -1.23609,-0.28054 -1.88202,-0.26139 z"
     id="path3011"
     inkscape:connector-curvature="0" />
</svg>
